<?xml version="1.0" standalone="no"?><!DOCTYPE svg PUBLIC "-//W3C//DTD SVG 1.1//EN" "http://www.w3.org/Graphics/SVG/1.1/DTD/svg11.dtd"><svg t="1533801360298" class="icon" style="" viewBox="0 0 1368 1024" version="1.1" xmlns="http://www.w3.org/2000/svg" p-id="1043" xmlns:xlink="http://www.w3.org/1999/xlink" width="40.078125" height="30"><defs><style type="text/css"></style></defs><path d="M1211.295111 0H157.39993A157.39993 157.39993 0 0 0 0 157.39993v709.20014a157.39993 157.39993 0 0 0 157.39993 157.39993h1053.895181A157.39993 157.39993 0 0 0 1368.69504 866.60007V157.39993A157.39993 157.39993 0 0 0 1211.295111 0z m97.96975 866.60007a98.329933 98.329933 0 0 1-97.96975 97.969751H157.39993a98.329933 98.329933 0 0 1-97.969751-97.969751V157.39993a98.329933 98.329933 0 0 1 97.969751-97.969751h1053.895181a98.329933 98.329933 0 0 1 97.96975 97.969751z m-457.43229-483.005276h218.631024a29.895181 29.895181 0 1 0 0-59.430179h-218.631024a29.895181 29.895181 0 1 0 0 59.430179z m0 175.409075h218.631024a29.895181 29.895181 0 1 0 0-59.430179h-218.631024a29.895181 29.895181 0 1 0 0 59.430179z m324.164615 115.978896h-324.164615a29.895181 29.895181 0 1 0 0 59.430179h324.164615a29.895181 29.895181 0 1 0 0-59.430179zM648.32923 620.234963A282.743581 282.743581 0 0 0 519.38375 540.274358h-4.322195l3.962012-2.161097a163.162856 163.162856 0 1 0-152.717552 0l3.962012 2.161097h-4.322195a283.103764 283.103764 0 0 0-128.94548 78.880056A275.539923 275.539923 0 0 0 167.485051 756.384101a29.534998 29.534998 0 0 0 23.772072 36.018291h5.762926a29.534998 29.534998 0 0 0 28.814633-24.132255 220.792121 220.792121 0 0 1 432.219486 0 29.895181 29.895181 0 0 0 29.174815 24.132255h5.402744a29.895181 29.895181 0 0 0 23.772072-36.018291A275.539923 275.539923 0 0 0 648.32923 620.234963z m-205.664439-329.207175A103.732677 103.732677 0 1 1 338.932114 396.201196a103.732677 103.732677 0 0 1 103.732677-103.732677z m0 0" fill="" p-id="1044"></path></svg>